<svg width="20" height="21" viewBox="0 0 20 21" fill="none" xmlns="http://www.w3.org/2000/svg">
<path d="M6.10352e-05 0.645996V20.646H20.0001V0.645996H6.10352e-05ZM12.1117 16.971C11.7734 17.036 11.6667 16.8285 11.6667 16.651V14.8218C11.6667 14.1993 11.4484 13.7943 11.2084 13.5877C12.6934 13.4227 14.2534 12.8585 14.2534 10.2985C14.2534 9.57016 13.9942 8.97516 13.5667 8.50933C13.6359 8.341 13.8642 7.66266 13.5009 6.74516C13.5009 6.74516 12.9417 6.566 11.6692 7.4285C11.1367 7.2785 10.5667 7.206 10.0001 7.20266C9.43339 7.20516 8.86339 7.2785 8.33089 7.42683C7.05756 6.56433 6.49756 6.7435 6.49756 6.7435C6.13589 7.66183 6.36423 8.33933 6.43339 8.5085C6.00673 8.97516 5.74673 9.56933 5.74673 10.2977C5.74673 12.851 7.30256 13.4235 8.78423 13.5927C8.59339 13.7593 8.42089 14.0527 8.36089 14.4843C7.98006 14.6543 7.01589 14.9485 6.42089 13.9293C6.42089 13.9293 6.06839 13.2893 5.39839 13.2418C5.39839 13.2418 4.74839 13.2335 5.35256 13.6477C5.35256 13.6477 5.79006 13.8527 6.09339 14.6227C6.09339 14.6227 6.47923 15.8127 8.33339 15.4093V16.6502C8.33339 16.826 8.22589 17.0327 7.89339 16.971C5.24339 16.0902 3.33339 13.591 3.33339 10.646C3.33339 6.9635 6.31839 3.97933 10.0001 3.97933C13.6817 3.97933 16.6667 6.9635 16.6667 10.646C16.6667 13.5902 14.7592 16.0885 12.1117 16.971Z" fill="#1E1924"/>
</svg>
