<svg width="20" height="21" viewBox="0 0 20 21" fill="none" xmlns="http://www.w3.org/2000/svg">
<path d="M6.10352e-05 0.645996V20.646H20.0001V0.645996H6.10352e-05ZM6.66673 16.4793H4.16673V7.31266H6.66673V16.4793ZM5.41673 6.256C4.61173 6.256 3.95839 5.59766 3.95839 4.786C3.95839 3.97433 4.61173 3.316 5.41673 3.316C6.22173 3.316 6.87506 3.97433 6.87506 4.786C6.87506 5.59766 6.22256 6.256 5.41673 6.256ZM16.6667 16.4793H14.1667V11.8093C14.1667 9.00266 10.8334 9.21516 10.8334 11.8093V16.4793H8.33339V7.31266H10.8334V8.7835C11.9976 6.6285 16.6667 6.46933 16.6667 10.8468V16.4793Z" fill="#1E1924"/>
</svg>
