<svg width="332" height="32" viewBox="0 0 332 32" fill="none" xmlns="http://www.w3.org/2000/svg">
<path d="M5.96004 31H0.0400391V3.07996H10.84C12.2 3.07996 13.4134 3.2933 14.48 3.71996C15.5467 4.11996 16.44 4.70663 17.16 5.47996C17.9067 6.2533 18.4667 7.18663 18.84 8.27996C19.2134 9.3733 19.4 10.6 19.4 11.96C19.4 13.9333 18.9734 15.6266 18.12 17.04C17.2667 18.4533 16.0534 19.3866 14.48 19.84L19.96 31H13.4L8.72004 20.64H5.96004V31ZM9.40004 16C10.8134 16 11.7867 15.7333 12.32 15.2C12.88 14.6666 13.16 13.7866 13.16 12.56V11.36C13.16 10.1333 12.88 9.2533 12.32 8.71996C11.7867 8.18663 10.8134 7.91996 9.40004 7.91996H5.96004V16H9.40004Z" fill="#1E1924"/>
<path d="M32.9844 31.48C31.3844 31.48 29.9444 31.24 28.6644 30.76C27.3844 30.2533 26.2911 29.5333 25.3844 28.6C24.5044 27.6666 23.8244 26.5333 23.3444 25.2C22.8644 23.8666 22.6244 22.36 22.6244 20.68C22.6244 19 22.8644 17.4933 23.3444 16.16C23.8244 14.8266 24.5044 13.6933 25.3844 12.76C26.2911 11.8266 27.3844 11.12 28.6644 10.64C29.9444 10.1333 31.3844 9.87996 32.9844 9.87996C34.5844 9.87996 36.0244 10.1333 37.3044 10.64C38.5844 11.12 39.6644 11.8266 40.5444 12.76C41.4511 13.6933 42.1444 14.8266 42.6244 16.16C43.1044 17.4933 43.3444 19 43.3444 20.68C43.3444 22.36 43.1044 23.8666 42.6244 25.2C42.1444 26.5333 41.4511 27.6666 40.5444 28.6C39.6644 29.5333 38.5844 30.2533 37.3044 30.76C36.0244 31.24 34.5844 31.48 32.9844 31.48ZM32.9844 27.08C34.3177 27.08 35.3577 26.6666 36.1044 25.84C36.8511 25.0133 37.2244 23.84 37.2244 22.32V19.04C37.2244 17.52 36.8511 16.3466 36.1044 15.52C35.3577 14.6933 34.3177 14.28 32.9844 14.28C31.6511 14.28 30.6111 14.6933 29.8644 15.52C29.1177 16.3466 28.7444 17.52 28.7444 19.04V22.32C28.7444 23.84 29.1177 25.0133 29.8644 25.84C30.6111 26.6666 31.6511 27.08 32.9844 27.08Z" fill="#1E1924"/>
<path d="M47.3288 1.39996H53.2488V14.12H53.5288C54.0355 12.8933 54.7688 11.88 55.7288 11.08C56.6888 10.28 57.9955 9.87996 59.6488 9.87996C60.7955 9.87996 61.8355 10.0933 62.7688 10.52C63.7288 10.9466 64.5421 11.6 65.2088 12.48C65.9021 13.36 66.4355 14.48 66.8088 15.84C67.2088 17.2 67.4088 18.8133 67.4088 20.68C67.4088 22.5466 67.2088 24.16 66.8088 25.52C66.4355 26.88 65.9021 28 65.2088 28.88C64.5421 29.76 63.7288 30.4133 62.7688 30.84C61.8355 31.2666 60.7955 31.48 59.6488 31.48C57.9955 31.48 56.6888 31.0933 55.7288 30.32C54.7688 29.52 54.0355 28.4933 53.5288 27.24H53.2488V31H47.3288V1.39996ZM57.0888 26.88C58.4221 26.88 59.4488 26.48 60.1688 25.68C60.8888 24.8533 61.2488 23.72 61.2488 22.28V19.08C61.2488 17.64 60.8888 16.52 60.1688 15.72C59.4488 14.8933 58.4221 14.48 57.0888 14.48C56.0488 14.48 55.1421 14.7333 54.3688 15.24C53.6221 15.7466 53.2488 16.5466 53.2488 17.64V23.72C53.2488 24.8133 53.6221 25.6133 54.3688 26.12C55.1421 26.6266 56.0488 26.88 57.0888 26.88Z" fill="#1E1924"/>
<path d="M80.7132 31.48C78.4198 31.48 76.4198 31.1333 74.7132 30.44C73.0332 29.7466 71.7665 28.8 70.9132 27.6L74.2332 24.52C75.0332 25.4 75.9665 26.0933 77.0332 26.6C78.1265 27.08 79.3665 27.32 80.7532 27.32C81.9265 27.32 82.8465 27.1466 83.5132 26.8C84.1798 26.4266 84.5132 25.8666 84.5132 25.12C84.5132 24.5333 84.2865 24.1333 83.8332 23.92C83.3798 23.68 82.7532 23.4933 81.9532 23.36L78.6332 22.84C77.6998 22.7066 76.8332 22.5066 76.0332 22.24C75.2332 21.9466 74.5398 21.56 73.9532 21.08C73.3665 20.6 72.8998 20.0133 72.5532 19.32C72.2065 18.6266 72.0332 17.7866 72.0332 16.8C72.0332 14.64 72.8598 12.9466 74.5132 11.72C76.1665 10.4933 78.4865 9.87996 81.4732 9.87996C83.4998 9.87996 85.2198 10.16 86.6332 10.72C88.0732 11.2533 89.2198 12.0266 90.0732 13.04L87.1132 16.4C86.4998 15.7333 85.7132 15.1733 84.7532 14.72C83.7932 14.2666 82.6332 14.04 81.2732 14.04C78.9798 14.04 77.8332 14.7333 77.8332 16.12C77.8332 16.7333 78.0598 17.16 78.5132 17.4C78.9665 17.6133 79.5932 17.7866 80.3932 17.92L83.6732 18.44C84.6065 18.5733 85.4732 18.7866 86.2732 19.08C87.0732 19.3466 87.7665 19.72 88.3532 20.2C88.9665 20.68 89.4465 21.2666 89.7932 21.96C90.1398 22.6533 90.3132 23.4933 90.3132 24.48C90.3132 26.64 89.4732 28.3466 87.7932 29.6C86.1398 30.8533 83.7798 31.48 80.7132 31.48Z" fill="#1E1924"/>
<path d="M104.938 31.48C103.338 31.48 101.898 31.24 100.618 30.76C99.3375 30.2533 98.2442 29.5333 97.3375 28.6C96.4575 27.6666 95.7775 26.5333 95.2975 25.2C94.8175 23.8666 94.5775 22.36 94.5775 20.68C94.5775 19 94.8175 17.4933 95.2975 16.16C95.7775 14.8266 96.4575 13.6933 97.3375 12.76C98.2442 11.8266 99.3375 11.12 100.618 10.64C101.898 10.1333 103.338 9.87996 104.938 9.87996C106.538 9.87996 107.978 10.1333 109.258 10.64C110.538 11.12 111.618 11.8266 112.498 12.76C113.404 13.6933 114.098 14.8266 114.578 16.16C115.058 17.4933 115.298 19 115.298 20.68C115.298 22.36 115.058 23.8666 114.578 25.2C114.098 26.5333 113.404 27.6666 112.498 28.6C111.618 29.5333 110.538 30.2533 109.258 30.76C107.978 31.24 106.538 31.48 104.938 31.48ZM104.938 27.08C106.271 27.08 107.311 26.6666 108.058 25.84C108.804 25.0133 109.178 23.84 109.178 22.32V19.04C109.178 17.52 108.804 16.3466 108.058 15.52C107.311 14.6933 106.271 14.28 104.938 14.28C103.604 14.28 102.564 14.6933 101.818 15.52C101.071 16.3466 100.698 17.52 100.698 19.04V22.32C100.698 23.84 101.071 25.0133 101.818 25.84C102.564 26.6666 103.604 27.08 104.938 27.08Z" fill="#1E1924"/>
<path d="M119.522 31V10.36H125.442V14.12H125.682C125.922 13.5333 126.215 12.9866 126.562 12.48C126.909 11.9733 127.322 11.5333 127.802 11.16C128.309 10.76 128.882 10.4533 129.522 10.24C130.189 9.99996 130.935 9.87996 131.762 9.87996C132.749 9.87996 133.655 10.0533 134.482 10.4C135.309 10.72 136.015 11.2133 136.602 11.88C137.189 12.5466 137.642 13.36 137.962 14.32C138.309 15.28 138.482 16.3866 138.482 17.64V31H132.562V18.44C132.562 15.7733 131.402 14.44 129.082 14.44C128.629 14.44 128.175 14.5066 127.722 14.64C127.295 14.7466 126.909 14.9333 126.562 15.2C126.215 15.44 125.935 15.7466 125.722 16.12C125.535 16.4933 125.442 16.9333 125.442 17.44V31H119.522Z" fill="#1E1924"/>
<path d="M168.091 31V3.07996H186.611V7.99996H174.091V14.4H185.291V19.32H174.091V31H168.091Z" fill="#1E1924"/>
<path d="M202.155 7.71996C200.822 7.71996 199.888 7.45329 199.355 6.91996C198.848 6.35996 198.595 5.6933 198.595 4.91996V3.75996C198.595 2.95996 198.848 2.2933 199.355 1.75996C199.888 1.22663 200.822 0.959961 202.155 0.959961C203.488 0.959961 204.408 1.22663 204.915 1.75996C205.448 2.2933 205.715 2.95996 205.715 3.75996V4.91996C205.715 5.6933 205.448 6.35996 204.915 6.91996C204.408 7.45329 203.488 7.71996 202.155 7.71996ZM192.635 26.4H199.195V14.96H192.635V10.36H205.115V26.4H211.195V31H192.635V26.4Z" fill="#1E1924"/>
<path d="M215.819 26.4H220.579V14.96H215.819V10.36H226.499V16.2H226.779C226.966 15.4533 227.219 14.7333 227.539 14.04C227.886 13.32 228.313 12.6933 228.819 12.16C229.353 11.6 229.993 11.16 230.739 10.84C231.486 10.52 232.366 10.36 233.379 10.36H235.339V15.8H230.939C229.473 15.8 228.366 16.24 227.619 17.12C226.873 17.9733 226.499 19.0266 226.499 20.28V26.4H233.299V31H215.819V26.4Z" fill="#1E1924"/>
<path d="M238.044 31V10.36H242.804V13.4H243.084C243.404 12.44 243.857 11.6133 244.444 10.92C245.057 10.2266 245.91 9.87996 247.004 9.87996C249.004 9.87996 250.23 11.0533 250.684 13.4H250.924C251.084 12.92 251.284 12.4666 251.524 12.04C251.764 11.6133 252.057 11.24 252.404 10.92C252.75 10.6 253.164 10.3466 253.644 10.16C254.124 9.9733 254.684 9.87996 255.324 9.87996C258.204 9.87996 259.644 12 259.644 16.24V31H254.884V16.84C254.884 15.88 254.71 15.2133 254.364 14.84C254.044 14.44 253.617 14.24 253.084 14.24C252.577 14.24 252.137 14.4133 251.764 14.76C251.417 15.08 251.244 15.5866 251.244 16.28V31H246.444V16.84C246.444 15.88 246.284 15.2133 245.964 14.84C245.67 14.44 245.257 14.24 244.724 14.24C244.19 14.24 243.737 14.4133 243.364 14.76C242.99 15.08 242.804 15.5866 242.804 16.28V31H238.044Z" fill="#1E1924"/>
<path d="M274.108 7.71996C272.775 7.71996 271.841 7.45329 271.308 6.91996C270.802 6.35996 270.548 5.6933 270.548 4.91996V3.75996C270.548 2.95996 270.802 2.2933 271.308 1.75996C271.841 1.22663 272.775 0.959961 274.108 0.959961C275.441 0.959961 276.362 1.22663 276.868 1.75996C277.401 2.2933 277.668 2.95996 277.668 3.75996V4.91996C277.668 5.6933 277.401 6.35996 276.868 6.91996C276.362 7.45329 275.441 7.71996 274.108 7.71996ZM264.588 26.4H271.148V14.96H264.588V10.36H277.068V26.4H283.148V31H264.588V26.4Z" fill="#1E1924"/>
<path d="M287.413 31V10.36H293.333V14.12H293.573C293.813 13.5333 294.106 12.9866 294.453 12.48C294.799 11.9733 295.213 11.5333 295.693 11.16C296.199 10.76 296.773 10.4533 297.413 10.24C298.079 9.99996 298.826 9.87996 299.653 9.87996C300.639 9.87996 301.546 10.0533 302.373 10.4C303.199 10.72 303.906 11.2133 304.493 11.88C305.079 12.5466 305.533 13.36 305.853 14.32C306.199 15.28 306.373 16.3866 306.373 17.64V31H300.453V18.44C300.453 15.7733 299.293 14.44 296.973 14.44C296.519 14.44 296.066 14.5066 295.613 14.64C295.186 14.7466 294.799 14.9333 294.453 15.2C294.106 15.44 293.826 15.7466 293.613 16.12C293.426 16.4933 293.333 16.9333 293.333 17.44V31H287.413Z" fill="#1E1924"/>
<path d="M320.797 31.48C319.197 31.48 317.757 31.24 316.477 30.76C315.197 30.2533 314.104 29.5333 313.197 28.6C312.317 27.6666 311.637 26.5333 311.157 25.2C310.677 23.8666 310.437 22.36 310.437 20.68C310.437 19 310.677 17.4933 311.157 16.16C311.637 14.8266 312.317 13.6933 313.197 12.76C314.104 11.8266 315.197 11.12 316.477 10.64C317.757 10.1333 319.197 9.87996 320.797 9.87996C322.397 9.87996 323.837 10.1333 325.117 10.64C326.397 11.12 327.477 11.8266 328.357 12.76C329.264 13.6933 329.957 14.8266 330.437 16.16C330.917 17.4933 331.157 19 331.157 20.68C331.157 22.36 330.917 23.8666 330.437 25.2C329.957 26.5333 329.264 27.6666 328.357 28.6C327.477 29.5333 326.397 30.2533 325.117 30.76C323.837 31.24 322.397 31.48 320.797 31.48ZM320.797 27.08C322.13 27.08 323.17 26.6666 323.917 25.84C324.664 25.0133 325.037 23.84 325.037 22.32V19.04C325.037 17.52 324.664 16.3466 323.917 15.52C323.17 14.6933 322.13 14.28 320.797 14.28C319.464 14.28 318.424 14.6933 317.677 15.52C316.93 16.3466 316.557 17.52 316.557 19.04V22.32C316.557 23.84 316.93 25.0133 317.677 25.84C318.424 26.6666 319.464 27.08 320.797 27.08Z" fill="#1E1924"/>
</svg>
