<svg width="30" height="30" viewBox="0 0 30 30" fill="none" xmlns="http://www.w3.org/2000/svg">
<path d="M30 15C30 23.2843 23.2843 30 15 30C6.71573 30 0 23.2843 0 15C0 6.71573 6.71573 0 15 0C23.2843 0 30 6.71573 30 15Z" fill="#FAFAFA"/>
<path d="M2.275 16.325V14.525L8.725 10.985V12.815L4.015 15.365V15.485L8.725 18.035V19.865L2.275 16.325Z" fill="#1E1924"/>
<path d="M11.1641 22.07L16.0991 8.6H17.8241L12.8891 22.07H11.1641Z" fill="#1E1924"/>
<path d="M20.2633 18.035L24.9733 15.485V15.365L20.2633 12.815V10.985L26.7133 14.525V16.325L20.2633 19.865V18.035Z" fill="#1E1924"/>
</svg>
