<svg width="374" height="274" viewBox="0 0 374 274" fill="none" xmlns="http://www.w3.org/2000/svg">
<path d="M374 137C374 212.663 312.663 274 237 274C161.337 274 100 212.663 100 137C100 61.337 161.337 0 237 0C312.663 0 374 61.337 374 137Z" fill="#837AF9"/>
<path d="M0 69C0 66.2386 2.23858 64 5 64H295C297.761 64 300 66.2386 300 69V225C300 227.761 297.761 230 295 230H5C2.23857 230 0 227.761 0 225V69Z" fill="#FAFAFA"/>
<path d="M280 84C280 87.866 276.866 91 273 91C269.134 91 266 87.866 266 84C266 80.134 269.134 77 273 77C276.866 77 280 80.134 280 84Z" fill="#837AF9"/>
<path d="M277 87H269L273 85L277 87Z" fill="black"/>
<path d="M275 82C275 83.1046 274.105 84 273 84C271.895 84 271 83.1046 271 82C271 80.8954 271.895 80 273 80C274.105 80 275 80.8954 275 82Z" fill="black"/>
<path d="M20 80H29V81H20V80Z" fill="#837AF9"/>
<path d="M20 83H29V84H20V83Z" fill="#837AF9"/>
<path d="M20 86H29V87H20V86Z" fill="#837AF9"/>
<path d="M20 109C20 106.239 22.2386 104 25 104H275C277.761 104 280 106.239 280 109V205C280 207.761 277.761 210 275 210H25C22.2386 210 20 207.761 20 205V109Z" fill="#837AF9"/>
<path d="M80 82C80 80.8954 80.8954 80 82 80H188C189.105 80 190 80.8954 190 82V85C190 86.1046 189.105 87 188 87H82C80.8954 87 80 86.1046 80 85V82Z" fill="#939DFF"/>
<path d="M40 121C40 119.895 40.8954 119 42 119H133C134.105 119 135 119.895 135 121V180C135 181.105 134.105 182 133 182H42C40.8954 182 40 181.105 40 180V121Z" fill="#FAFAFA"/>
<path d="M165 121C165 119.895 165.895 119 167 119H258C259.105 119 260 119.895 260 121V180C260 181.105 259.105 182 258 182H167C165.895 182 165 181.105 165 180V121Z" fill="#FAFAFA"/>
<path d="M40 187C40 185.895 40.8954 185 42 185H126C127.105 185 128 185.895 128 187C128 188.105 127.105 189 126 189H42C40.8954 189 40 188.105 40 187Z" fill="#FAFAFA"/>
<path d="M40 194C40 192.895 40.8954 192 42 192H118C119.105 192 120 192.895 120 194C120 195.105 119.105 196 118 196H42C40.8954 196 40 195.105 40 194Z" fill="#FAFAFA"/>
<path d="M165 187C165 185.895 165.895 185 167 185H251C252.105 185 253 185.895 253 187C253 188.105 252.105 189 251 189H167C165.895 189 165 188.105 165 187Z" fill="#FAFAFA"/>
<path d="M165 194C165 192.895 165.895 192 167 192H243C244.105 192 245 192.895 245 194C245 195.105 244.105 196 243 196H167C165.895 196 165 195.105 165 194Z" fill="#FAFAFA"/>
</svg>
